<mxfile version="20.1.4" type="atlas">
  <diagram>
    <mxGraphModel dx="1815" dy="751" pageHeight="306" pageWidth="234">
      <root>
        <mxCell id="0"/>
        <mxCell id="1" parent="0"/>
        <object placeholders="1" MxC4Name="Microsoft Dynamics AX" MxC4Type="kurt" MxC4Description="be awesome" label="&lt;div style=&quot;font-size:16px;font-weight:bold;&quot;&gt;%MxC4Name%&lt;/div&gt;&lt;div&gt;[%MxC4Type%]&lt;/div&gt;&lt;div style=&quot;font-size:11px;color:#cccccc;&quot;&gt;%MxC4Description%&lt;/div&gt;">
          <mxCell style="rounded=1;whiteSpace=wrap;html=1;labelBackgroundColor=none;fillColor=#1061B0;fontColor=#ffffff;align=center;arcSize=10;strokeColor=#0D5091;metaEdit=1;resizable=0;points=[[0.25,0,0],[0.5,0,0],[0.75,0,0],[1,0.25,0],[1,0.5,0],[1,0.75,0],[0.75,1,0],[0.5,1,0],[0.25,1,0],[0,0.75,0],[0,0.5,0],[0,0.25,0]]" parent="1" vertex="1">
            <mxGeometry height="162" width="221" x="7" y="45" as="geometry"/>
          </mxCell>
        </object>
        <object placeholders="1" MxC4Name="Application" MxC4Type="kurt" MxC4Description="be awesome" label="&lt;div style=&quot;font-size:16px;font-weight:bold;&quot;&gt;%MxC4Name%&lt;/div&gt;&lt;div&gt;[%MxC4Type%]&lt;/div&gt;&lt;div style=&quot;font-size:11px;color:#cccccc;&quot;&gt;%MxC4Description%&lt;/div&gt;">
          <mxCell style="rounded=1;whiteSpace=wrap;html=1;labelBackgroundColor=none;fillColor=#1061B0;fontColor=#ffffff;align=center;arcSize=10;strokeColor=#0D5091;metaEdit=1;resizable=0;points=[[0.25,0,0],[0.5,0,0],[0.75,0,0],[1,0.25,0],[1,0.5,0],[1,0.75,0],[0.75,1,0],[0.5,1,0],[0.25,1,0],[0,0.75,0],[0,0.5,0],[0,0.25,0]]" parent="1" vertex="1">
            <mxGeometry height="76" width="120" x="57" y="115" as="geometry"/>
          </mxCell>
        </object>
      </root>
    </mxGraphModel>
  </diagram>
</mxfile>